<svg width="20" height="20" viewBox="0 0 20 20" fill="none" xmlns="http://www.w3.org/2000/svg">
<g clip-path="url(#clip0_765_257)">
<path d="M16.926 16.1412C17.1441 15.8693 17.2453 15.522 17.2073 15.1756C17.1693 14.8291 16.9952 14.512 16.7233 14.2939C16.4515 14.0758 16.1042 13.9747 15.7577 14.0127C15.4113 14.0507 15.0942 14.2248 14.8761 14.4966C13.9571 15.6399 12.6819 16.4428 11.2536 16.7774C9.82542 17.112 8.32632 16.9589 6.99512 16.3427C5.66392 15.7264 4.57732 14.6824 3.90832 13.377C3.23932 12.0716 3.02642 10.5798 3.30352 9.13927C3.58062 7.6988 4.33192 6.3925 5.43752 5.42849C6.54322 4.46448 7.93962 3.89821 9.40442 3.81989C10.8693 3.74157 12.3181 4.1557 13.5203 4.99632C14.7224 5.83693 15.6086 7.05568 16.0378 8.45838C16.1397 8.79165 16.3698 9.07079 16.6775 9.2344C16.9852 9.39801 17.3453 9.43268 17.6786 9.33079C18.0118 9.2289 18.291 8.99879 18.4546 8.69109C18.6182 8.38338 18.6529 8.02329 18.551 7.69003C17.9502 5.72609 16.7094 4.01971 15.0264 2.84277C13.3433 1.66583 11.3147 1.08603 9.26382 1.19576C7.21302 1.30549 5.25792 2.09843 3.71002 3.44825C2.16212 4.79806 1.11042 6.62709 0.722719 8.64392C0.334919 10.6608 0.633219 12.7494 1.57022 14.577C2.50722 16.4045 4.02882 17.866 5.89272 18.7284C7.75672 19.5908 9.85562 19.8046 11.8552 19.3357C13.8547 18.8669 15.6398 17.7423 16.926 16.1412Z" fill="#1E1E1E"/>
<path d="M13.2388 5.87074C13.0726 5.8243 12.8988 5.81106 12.7275 5.83176C12.5561 5.85247 12.3906 5.90672 12.2402 5.99141C12.0898 6.07611 11.9576 6.1896 11.8511 6.3254C11.7446 6.46119 11.6658 6.61664 11.6194 6.78286C11.573 6.94908 11.5597 7.12282 11.5804 7.29415C11.6011 7.46549 11.6554 7.63108 11.7401 7.78145C11.8248 7.93182 11.9383 8.06404 12.074 8.17055C12.2098 8.27707 12.3653 8.35579 12.5315 8.40223L17.7625 9.86294C18.0963 9.95083 18.4513 9.90385 18.7508 9.73214C19.0502 9.56043 19.2701 9.27778 19.3628 8.94529C19.4556 8.61279 19.4137 8.25716 19.2464 7.95525C19.0791 7.65334 18.7996 7.4294 18.4685 7.33183L13.2388 5.87074Z" fill="#1E1E1E"/>
<path d="M20.0164 3.93102C20.052 3.58878 19.952 3.24621 19.7378 2.97694C19.5235 2.70766 19.2123 2.53314 18.8708 2.4909C18.5293 2.44865 18.1848 2.54204 17.9115 2.75099C17.6381 2.95995 17.4576 3.2678 17.4087 3.60841L16.8123 8.435C16.7875 8.60793 16.7974 8.78407 16.8415 8.95312C16.8856 9.12216 16.9629 9.28072 17.069 9.41951C17.1751 9.55831 17.3078 9.67456 17.4594 9.76146C17.6109 9.84836 17.7783 9.90416 17.9517 9.92561C18.125 9.94706 18.301 9.93372 18.4691 9.88638C18.6373 9.83903 18.7943 9.75863 18.931 9.64987C19.0677 9.54112 19.1814 9.40619 19.2654 9.25298C19.3493 9.09978 19.4019 8.93137 19.4199 8.75761L20.0164 3.93102Z" fill="#1E1E1E"/>
</g>
<defs>
<clipPath id="clip0_765_257">
<rect width="20" height="20" fill="white" transform="matrix(-1 0 0 1 20 0)"/>
</clipPath>
</defs>
</svg>
