<svg width="20" height="20" viewBox="0 0 20 20" fill="none" xmlns="http://www.w3.org/2000/svg">
<path d="M3.07388 16.1414C2.85579 15.8695 2.75463 15.5222 2.79265 15.1758C2.83066 14.8293 3.00474 14.5122 3.27658 14.2941C3.54842 14.076 3.89576 13.9749 4.24219 14.0129C4.58862 14.0509 4.90576 14.225 5.12384 14.4968C6.04284 15.6401 7.31803 16.443 8.74627 16.7776C10.1745 17.1122 11.6736 16.9591 13.0048 16.3429C14.336 15.7266 15.4226 14.6826 16.0916 13.3772C16.7606 12.0718 16.9735 10.58 16.6964 9.1395C16.4193 7.69903 15.668 6.39273 14.5624 5.42872C13.4567 4.46471 12.0603 3.89844 10.5955 3.82012C9.13066 3.7418 7.68178 4.15593 6.47965 4.99655C5.27751 5.83716 4.39127 7.05591 3.96212 8.45861C3.86023 8.79188 3.63012 9.07102 3.32242 9.23463C3.01472 9.39824 2.65462 9.43291 2.32135 9.33102C1.98808 9.22913 1.70894 8.99902 1.54533 8.69132C1.38172 8.38361 1.34705 8.02352 1.44894 7.69026C2.04971 5.72632 3.29048 4.01994 4.97357 2.843C6.65666 1.66606 8.68522 1.08626 10.7361 1.19599C12.7869 1.30572 14.742 2.09866 16.2899 3.44848C17.8378 4.79829 18.8895 6.62732 19.2772 8.64415C19.665 10.661 19.3667 12.7496 18.4297 14.5772C17.4927 16.4047 15.9711 17.8662 14.1072 18.7286C12.2432 19.591 10.1443 19.8048 8.14475 19.3359C6.14521 18.8671 4.36012 17.7425 3.07388 16.1414Z" fill="#1E1E1E"/>
<path d="M6.76107 5.87077C6.92729 5.82433 7.10103 5.81109 7.27237 5.83179C7.44371 5.8525 7.60929 5.90675 7.75966 5.99144C7.91004 6.07614 8.04225 6.18963 8.14877 6.32543C8.25528 6.46122 8.33401 6.61667 8.38045 6.78289C8.42689 6.94911 8.44013 7.12285 8.41943 7.29418C8.39872 7.46552 8.34447 7.63111 8.25978 7.78148C8.17508 7.93185 8.06159 8.06407 7.9258 8.17058C7.79 8.2771 7.63455 8.35582 7.46833 8.40226L2.23732 9.86297C1.90352 9.95086 1.54853 9.90388 1.24908 9.73217C0.949631 9.56046 0.729777 9.27781 0.637034 8.94532C0.54429 8.61282 0.586108 8.25719 0.753446 7.95528C0.920784 7.65337 1.2002 7.42943 1.53131 7.33186L6.76107 5.87077Z" fill="#1E1E1E"/>
<path d="M-0.0160116 3.93091C-0.0516415 3.58867 0.0483948 3.2461 0.262605 2.97683C0.476815 2.70755 0.788106 2.53303 1.12959 2.49079C1.47108 2.44854 1.81551 2.54193 2.08889 2.75088C2.36227 2.95984 2.54278 3.26769 2.59163 3.6083L3.18805 8.43489C3.21285 8.60782 3.20292 8.78396 3.15884 8.95301C3.11476 9.12205 3.03741 9.28061 2.93132 9.4194C2.82523 9.5582 2.69253 9.67445 2.54098 9.76135C2.38942 9.84825 2.22207 9.90405 2.04869 9.9255C1.87531 9.94695 1.6994 9.93361 1.53124 9.88627C1.36308 9.83892 1.20605 9.75852 1.06933 9.64976C0.932613 9.54101 0.818956 9.40608 0.735006 9.25287C0.651056 9.09967 0.598499 8.93126 0.580409 8.7575L-0.0160116 3.93091Z" fill="#1E1E1E"/>
</svg>
