<svg width="29" height="30" viewBox="0 0 29 30" fill="none" xmlns="http://www.w3.org/2000/svg">
<path d="M7.16671 22.3332V15.0415M13 22.3332V10.6665M18.8334 22.3332V19.4165M13 4.83317H4.25004C3.47649 4.83317 2.73463 5.14046 2.18765 5.68744C1.64066 6.23442 1.33337 6.97629 1.33337 7.74984V25.2498C1.33337 26.0234 1.64066 26.7653 2.18765 27.3122C2.73463 27.8592 3.47649 28.1665 4.25004 28.1665H21.75C22.5236 28.1665 23.2655 27.8592 23.8124 27.3122C24.3594 26.7653 24.6667 26.0234 24.6667 25.2498V16.4998M23.2084 1.9165V6.2915M23.2084 6.2915V10.6665M23.2084 6.2915H27.5834M23.2084 6.2915H18.8334" stroke="black" stroke-width="2" stroke-linecap="round" stroke-linejoin="round"/>
</svg>
