<svg width="30" height="30" viewBox="0 0 30 30" fill="none" xmlns="http://www.w3.org/2000/svg">
<path d="M15 11.25C15.5176 11.25 16.001 11.3477 16.4502 11.543C16.8994 11.7383 17.2998 12.0068 17.6514 12.3486C18.0029 12.6904 18.2715 13.0859 18.457 13.5352C18.6426 13.9844 18.7402 14.4727 18.75 15C18.75 15.5176 18.6523 16.001 18.457 16.4502C18.2617 16.8994 17.9932 17.2998 17.6514 17.6514C17.3096 18.0029 16.9141 18.2715 16.4648 18.457C16.0156 18.6426 15.5273 18.7402 15 18.75C14.4824 18.75 13.999 18.6523 13.5498 18.457C13.1006 18.2617 12.7002 17.9932 12.3486 17.6514C11.9971 17.3096 11.7285 16.9141 11.543 16.4648C11.3574 16.0156 11.2598 15.5273 11.25 15C11.25 14.4824 11.3477 13.999 11.543 13.5498C11.7383 13.1006 12.0068 12.7002 12.3486 12.3486C12.6904 11.9971 13.0859 11.7285 13.5352 11.543C13.9844 11.3574 14.4727 11.2598 15 11.25ZM15 16.875C15.2637 16.875 15.5078 16.8262 15.7324 16.7285C15.957 16.6309 16.1523 16.499 16.3184 16.333C16.4844 16.167 16.6211 15.9668 16.7285 15.7324C16.8359 15.498 16.8848 15.2539 16.875 15C16.875 14.7363 16.8262 14.4922 16.7285 14.2676C16.6309 14.043 16.499 13.8477 16.333 13.6816C16.167 13.5156 15.9668 13.3789 15.7324 13.2715C15.498 13.1641 15.2539 13.1152 15 13.125C14.7363 13.125 14.4922 13.1738 14.2676 13.2715C14.043 13.3691 13.8477 13.501 13.6816 13.667C13.5156 13.833 13.3789 14.0332 13.2715 14.2676C13.1641 14.502 13.1152 14.7461 13.125 15C13.125 15.2637 13.1738 15.5078 13.2715 15.7324C13.3691 15.957 13.501 16.1523 13.667 16.3184C13.833 16.4844 14.0332 16.6211 14.2676 16.7285C14.502 16.8359 14.7461 16.8848 15 16.875ZM30 15C30 16.3672 29.8193 17.6953 29.458 18.9844C29.0967 20.2734 28.584 21.4844 27.9199 22.6172C27.2559 23.75 26.4404 24.79 25.4736 25.7373C24.5068 26.6846 23.4277 27.4805 22.2363 28.125H26.25V30H18.75V22.5H20.625V26.8506C21.7676 26.3135 22.7979 25.6299 23.7158 24.7998C24.6338 23.9697 25.4248 23.042 26.0889 22.0166C26.7529 20.9912 27.2559 19.8779 27.5977 18.6768C27.9395 17.4756 28.1152 16.25 28.125 15C28.125 13.7988 27.9688 12.6416 27.6562 11.5283C27.3438 10.415 26.9043 9.37012 26.3379 8.39355C25.7715 7.41699 25.083 6.52832 24.2725 5.72754C23.4619 4.92676 22.5781 4.24316 21.6211 3.67676C20.6641 3.11035 19.6191 2.66602 18.4863 2.34375C17.3535 2.02148 16.1914 1.86523 15 1.875C13.7988 1.875 12.6416 2.03125 11.5283 2.34375C10.415 2.65625 9.37012 3.0957 8.39355 3.66211C7.41699 4.22852 6.52832 4.91699 5.72754 5.72754C4.92676 6.53809 4.24316 7.42188 3.67676 8.37891C3.11035 9.33594 2.66602 10.3809 2.34375 11.5137C2.02148 12.6465 1.86523 13.8086 1.875 15H0C0 13.623 0.175781 12.2949 0.527344 11.0156C0.878906 9.73633 1.38184 8.54004 2.03613 7.42676C2.69043 6.31348 3.47168 5.30273 4.37988 4.39453C5.28809 3.48633 6.30371 2.70508 7.42676 2.05078C8.5498 1.39648 9.74121 0.893555 11.001 0.541992C12.2607 0.19043 13.5938 0.00976562 15 0C16.377 0 17.7051 0.175781 18.9844 0.527344C20.2637 0.878906 21.46 1.38184 22.5732 2.03613C23.6865 2.69043 24.6973 3.47168 25.6055 4.37988C26.5137 5.28809 27.2949 6.30371 27.9492 7.42676C28.6035 8.5498 29.1064 9.74609 29.458 11.0156C29.8096 12.2852 29.9902 13.6133 30 15Z" fill="white"/>
</svg>
