<svg width="23" height="23" viewBox="0 0 23 23" fill="none" xmlns="http://www.w3.org/2000/svg">
<path d="M15.875 14H14.8875L14.5375 13.6625C15.8049 12.1926 16.5015 10.3159 16.5 8.375C16.5 6.76803 16.0235 5.19714 15.1307 3.861C14.2379 2.52485 12.969 1.48344 11.4843 0.868482C9.99966 0.25352 8.36599 0.0926183 6.78989 0.406123C5.2138 0.719628 3.76606 1.49346 2.62976 2.62976C1.49346 3.76606 0.719628 5.2138 0.406123 6.78989C0.0926183 8.36599 0.25352 9.99966 0.868482 11.4843C1.48344 12.969 2.52485 14.2379 3.861 15.1307C5.19714 16.0235 6.76803 16.5 8.375 16.5C10.3875 16.5 12.2375 15.7625 13.6625 14.5375L14 14.8875V15.875L20.25 22.1125L22.1125 20.25L15.875 14ZM8.375 14C5.2625 14 2.75 11.4875 2.75 8.375C2.75 5.2625 5.2625 2.75 8.375 2.75C11.4875 2.75 14 5.2625 14 8.375C14 11.4875 11.4875 14 8.375 14ZM9 5.25H7.75V7.75H5.25V9H7.75V11.5H9V9H11.5V7.75H9V5.25Z" fill="#1E1E1E"/>
</svg>
